<svg fill="none" height="92" viewBox="0 0 92 92" width="92" xmlns="http://www.w3.org/2000/svg"><path d="m0 0h91.56v91.56h-91.56z" fill="#9146ff"/><path d="m58.2486 49.1154-6.6004 6.1238h-6.6004l-5.7754 5.3583v-5.3583h-7.4254v-22.9641h26.4016z" fill="#9146ff"/><path d="m35.3302 25.8756-1.9904 1.9905-3.4833 22.3924 10.4498 5.4737 1.4928 1.9904 9.9522-3.4833 10.9474-8.4593.4976-7.9618-.4976-11.445-1.4928-.4976z" fill="#fff"/><g fill="#000"><path d="m34.1262 24.3063-8.2505 7.6547v27.5569h9.9006v7.6547l8.2505-7.6547h6.6004l14.8509-13.7784v-21.4332zm28.0517 19.9022-6.6004 6.1238h-6.6004l-5.7754 5.3583v-5.3583h-7.4254v-22.9641h26.4016z"/><path d="m57.2285 32.7265h-3.3002v9.1856h3.3002z"/><path d="m48.155 32.7265h-3.3002v9.1856h3.3002z"/></g></svg>